<svg viewBox="0 0 340 300" xmlns="http://www.w3.org/2000/svg">
  <defs>
    <linearGradient id="kGrad" x1="0" y1="0" x2="1" y2="1">
      <stop offset="0" stop-color="#0B1B33"/>
      <stop offset="1" stop-color="#0250B0"/>
    </linearGradient>
  </defs>
  <path d="M210,116 L-10,116 L-10,130 L210,130 Z" fill="#D0FF41" opacity="0.55"/>
  <path d="M210,150 L-30,150 L210,150 Z" fill="#D0FF41" opacity="0.85"/>
  <path d="M210,180 L10,180 L210,180 Z" fill="#D0FF41" opacity="0.45"/>
  <g transform="translate(20,70)">
    <path d="M0,0 L40,0 L40,160 L0,160 Z" fill="url(#kGrad)"/>
    <path d="M40,72 L112,6 L160,6 L82,90 Z" fill="url(#kGrad)"/>
    <path d="M40,86 L114,160 L162,160 L82,88 Z" fill="url(#kGrad)"/>
  </g>
  <g transform="translate(255,150)">
    <circle r="46" fill="#FFFFFF"/>
    <circle r="46" fill="none" stroke="#C6D0DD" stroke-width="2.8"/>
    <polygon points="0,-19.3 18.4,-6 11.5,15.6 -11.5,15.6 -18.4,-6" fill="#0B1B33"/>
    <polygon points="0,-41.4 15.6,-28.5 0,-19.3 -15.6,-28.5" fill="#0B1B33" opacity="0.85"/>
    <polygon points="32.2,-2.3 18.4,-6 11.5,15.6 25.3,23" fill="#0B1B33" opacity="0.85"/>
    <ellipse cx="-12.9" cy="-16.1" rx="10.1" ry="6.4" fill="#FFFFFF" opacity="0.7"/>
  </g>
</svg>